<svg viewBox="0 0 330 200" xmlns="http://www.w3.org/2000/svg"><g><g><g><g><g><line x1="71.6875" y1="174" x2="66.6875" y2="174" style="visibility: inherit;" fill="rgb(0, 0, 0)" stroke="rgb(204, 204, 204)" stroke-width="1px"></line><line x1="71.6875" y1="154.66666666666666" x2="66.6875" y2="154.66666666666666" style="visibility: inherit;" fill="rgb(0, 0, 0)" stroke="rgb(204, 204, 204)" stroke-width="1px"></line><line x1="71.6875" y1="135.33333333333334" x2="66.6875" y2="135.33333333333334" style="visibility: inherit;" fill="rgb(0, 0, 0)" stroke="rgb(204, 204, 204)" stroke-width="1px"></line><line x1="71.6875" y1="116.00000000000001" x2="66.6875" y2="116.00000000000001" style="visibility: inherit;" fill="rgb(0, 0, 0)" stroke="rgb(204, 204, 204)" stroke-width="1px"></line><line x1="71.6875" y1="96.66666666666667" x2="66.6875" y2="96.66666666666667" style="visibility: inherit;" fill="rgb(0, 0, 0)" stroke="rgb(204, 204, 204)" stroke-width="1px"></line><line x1="71.6875" y1="77.33333333333333" x2="66.6875" y2="77.33333333333333" style="visibility: inherit;" fill="rgb(0, 0, 0)" stroke="rgb(204, 204, 204)" stroke-width="1px"></line><line x1="71.6875" y1="58.00000000000001" x2="66.6875" y2="58.00000000000001" style="visibility: inherit;" fill="rgb(0, 0, 0)" stroke="rgb(204, 204, 204)" stroke-width="1px"></line><line x1="71.6875" y1="38.666666666666664" x2="66.6875" y2="38.666666666666664" style="visibility: inherit;" fill="rgb(0, 0, 0)" stroke="rgb(204, 204, 204)" stroke-width="1px"></line><line x1="71.6875" y1="19.333333333333343" x2="66.6875" y2="19.333333333333343" style="visibility: inherit;" fill="rgb(0, 0, 0)" stroke="rgb(204, 204, 204)" stroke-width="1px"></line><line x1="71.6875" y1="0" x2="66.6875" y2="0" style="visibility: inherit;" fill="rgb(0, 0, 0)" stroke="rgb(204, 204, 204)" stroke-width="1px"></line></g><g transform="translate(61.6875, 0)"><text x="0" y="174" dx="0em" dy="0.3em" style="text-anchor: end; visibility: hidden; font-family: Roboto, sans-serif; font-size: 12px; font-weight: 200;" fill="rgb(33, 33, 33)" stroke="none" stroke-width="1px">-2e+4</text><text x="0" y="154.66666666666666" dx="0em" dy="0.3em" style="text-anchor: end; visibility: inherit; font-family: Roboto, sans-serif; font-size: 12px; font-weight: 200;" fill="rgb(33, 33, 33)" stroke="none" stroke-width="1px">0</text><text x="0" y="135.33333333333334" dx="0em" dy="0.3em" style="text-anchor: end; visibility: hidden; font-family: Roboto, sans-serif; font-size: 12px; font-weight: 200;" fill="rgb(33, 33, 33)" stroke="none" stroke-width="1px">2e+4</text><text x="0" y="116.00000000000001" dx="0em" dy="0.3em" style="text-anchor: end; visibility: inherit; font-family: Roboto, sans-serif; font-size: 12px; font-weight: 200;" fill="rgb(33, 33, 33)" stroke="none" stroke-width="1px">4e+4</text><text x="0" y="96.66666666666667" dx="0em" dy="0.3em" style="text-anchor: end; visibility: hidden; font-family: Roboto, sans-serif; font-size: 12px; font-weight: 200;" fill="rgb(33, 33, 33)" stroke="none" stroke-width="1px">6e+4</text><text x="0" y="77.33333333333333" dx="0em" dy="0.3em" style="text-anchor: end; visibility: inherit; font-family: Roboto, sans-serif; font-size: 12px; font-weight: 200;" fill="rgb(33, 33, 33)" stroke="none" stroke-width="1px">8e+4</text><text x="0" y="58.00000000000001" dx="0em" dy="0.3em" style="text-anchor: end; visibility: hidden; font-family: Roboto, sans-serif; font-size: 12px; font-weight: 200;" fill="rgb(33, 33, 33)" stroke="none" stroke-width="1px">1e+5</text><text x="0" y="38.666666666666664" dx="0em" dy="0.3em" style="text-anchor: end; visibility: inherit; font-family: Roboto, sans-serif; font-size: 12px; font-weight: 200;" fill="rgb(33, 33, 33)" stroke="none" stroke-width="1px">1.2e+5</text><text x="0" y="19.333333333333343" dx="0em" dy="0.3em" style="text-anchor: end; visibility: hidden; font-family: Roboto, sans-serif; font-size: 12px; font-weight: 200;" fill="rgb(33, 33, 33)" stroke="none" stroke-width="1px">1.4e+5</text><text x="0" y="0" dx="0em" dy="0.3em" style="text-anchor: end; visibility: hidden; font-family: Roboto, sans-serif; font-size: 12px; font-weight: 200;" fill="rgb(33, 33, 33)" stroke="none" stroke-width="1px">1.6e+5</text></g><line x1="71.6875" y1="0" x2="71.6875" y2="174" fill="rgb(0, 0, 0)" stroke="rgb(204, 204, 204)" stroke-width="1px"></line></g></g><g transform="translate(71, 0)" clip-path="url(#clip_0)"><clipPath id="clip_0"><rect width="258" height="174"></rect></clipPath><g><g><g><line x1="0" y1="0" x2="0" y2="174" fill="rgb(0, 0, 0)" stroke="rgb(66, 66, 66)" stroke-width="1px" opacity="0.25"></line><line x1="32.2890625" y1="0" x2="32.2890625" y2="174" fill="rgb(0, 0, 0)" stroke="rgb(66, 66, 66)" stroke-width="1px" opacity="0.25"></line><line x1="64.578125" y1="0" x2="64.578125" y2="174" fill="rgb(0, 0, 0)" stroke="rgb(66, 66, 66)" stroke-width="1px" opacity="0.25"></line><line x1="96.8671875" y1="0" x2="96.8671875" y2="174" fill="rgb(0, 0, 0)" stroke="rgb(66, 66, 66)" stroke-width="1px" opacity="0.25"></line><line x1="129.15625" y1="0" x2="129.15625" y2="174" fill="rgb(0, 0, 0)" stroke="rgb(66, 66, 66)" stroke-width="1px" opacity="0.25"></line><line x1="161.4453125" y1="0" x2="161.4453125" y2="174" fill="rgb(0, 0, 0)" stroke="rgb(66, 66, 66)" stroke-width="1px" opacity="0.25"></line><line x1="193.734375" y1="0" x2="193.734375" y2="174" fill="rgb(0, 0, 0)" stroke="rgb(66, 66, 66)" stroke-width="1px" opacity="0.25"></line><line x1="226.0234375" y1="0" x2="226.0234375" y2="174" fill="rgb(0, 0, 0)" stroke="rgb(66, 66, 66)" stroke-width="1px" opacity="0.25"></line><line x1="258.3125" y1="0" x2="258.3125" y2="174" fill="rgb(0, 0, 0)" stroke="rgb(66, 66, 66)" stroke-width="1px" opacity="0.25"></line></g><g><line x1="0" y1="174" x2="258.3125" y2="174" fill="rgb(0, 0, 0)" stroke="rgb(66, 66, 66)" stroke-width="1px" opacity="0.25"></line><line x1="0" y1="154.66666666666666" x2="258.3125" y2="154.66666666666666" fill="rgb(0, 0, 0)" stroke="rgb(66, 66, 66)" stroke-width="1px" opacity="0.25"></line><line x1="0" y1="135.33333333333334" x2="258.3125" y2="135.33333333333334" fill="rgb(0, 0, 0)" stroke="rgb(66, 66, 66)" stroke-width="1px" opacity="0.25"></line><line x1="0" y1="116.00000000000001" x2="258.3125" y2="116.00000000000001" fill="rgb(0, 0, 0)" stroke="rgb(66, 66, 66)" stroke-width="1px" opacity="0.25"></line><line x1="0" y1="96.66666666666667" x2="258.3125" y2="96.66666666666667" fill="rgb(0, 0, 0)" stroke="rgb(66, 66, 66)" stroke-width="1px" opacity="0.25"></line><line x1="0" y1="77.33333333333333" x2="258.3125" y2="77.33333333333333" fill="rgb(0, 0, 0)" stroke="rgb(66, 66, 66)" stroke-width="1px" opacity="0.25"></line><line x1="0" y1="58.00000000000001" x2="258.3125" y2="58.00000000000001" fill="rgb(0, 0, 0)" stroke="rgb(66, 66, 66)" stroke-width="1px" opacity="0.25"></line><line x1="0" y1="38.666666666666664" x2="258.3125" y2="38.666666666666664" fill="rgb(0, 0, 0)" stroke="rgb(66, 66, 66)" stroke-width="1px" opacity="0.25"></line><line x1="0" y1="19.333333333333343" x2="258.3125" y2="19.333333333333343" fill="rgb(0, 0, 0)" stroke="rgb(66, 66, 66)" stroke-width="1px" opacity="0.25"></line><line x1="0" y1="0" x2="258.3125" y2="0" fill="rgb(0, 0, 0)" stroke="rgb(66, 66, 66)" stroke-width="1px" opacity="0.25"></line></g></g></g><g><g><line x1="0" y1="154.66666666666666" x2="258.3125" y2="154.66666666666666" fill="rgb(0, 0, 0)" stroke="rgb(153, 153, 153)" stroke-width="1.5px"></line></g></g><g><g><line x1="32.2890625" y1="0" x2="32.2890625" y2="174" fill="rgb(0, 0, 0)" stroke="rgb(153, 153, 153)" stroke-width="1.5px"></line></g></g><g><g><g><g><g><path stroke="rgb(255, 112, 67)" stroke-width="2px" d="M33.903515625000004,14.366418749999996L35.51796875,36.52728984375L37.132421875,89.31173728874361L38.746874999999996,116.67709291860544L40.361328125,131.8517524522833L41.975781250000004,140.33675115823442L43.590234375,145.3091713001386L45.2046875,148.3961277052345L46.819140624999996,150.29646293639848L48.43359375,151.41797285016705L50.048046875000004,152.12855437099557L51.6625,152.56266753060603L53.276953125,152.90483564283187L54.891406249999996,153.0900346452321L56.505859375,153.25106110711116L58.120312500000004,153.38114439246465L59.734765625,153.50022724225977L61.34921875,153.5690597096762L62.963671874999996,153.64027208740183L64.578125,153.69984926042954L66.192578125,153.63286932878424L67.80703125000001,153.71852258467936L69.42148437499999,153.7446225866798L71.0359375,153.79787013162627L72.650390625,153.8500211798794L74.26484375,153.88151094767858L75.87929687500001,153.90228465464747L77.49374999999999,153.92468363694724L79.108203125,153.93210015804553L80.72265625,153.9431683386479L82.337109375,153.9537080797821L83.95156250000001,153.9601735015414L85.56601562499999,153.98307333785817L87.18046875,154.00223853776922L88.794921875,154.01177536647782L90.409375,154.0166023293115L92.02382812500001,154.02866324336466L93.63828124999999,154.03712230884318L95.252734375,154.04538715811077L96.8671875,154.05069669672903L98.481640625,154.04365173059685L100.09609375000001,154.05460576004307L101.71054687499999,154.06052626771375L103.325,154.0685710942885L104.939453125,154.07075759309677L106.55390625,154.07058921324736L108.16835937500001,154.0686929607283L109.78281249999999,154.07275920824046L111.397265625,154.07629339522427L113.01171875,154.05707854038963L114.626171875,154.06154940043822L116.24062500000001,154.07393506913667L117.85507812499999,154.08151932924244L119.46953125,154.07077708175768L121.083984375,154.08299677802597L122.6984375,154.08564755493407L124.31289062500001,154.07306807072086L125.92734374999999,154.03463261896246L127.541796875,154.06360397486054L129.15625,154.08054142788507L130.77070312499998,154.08399250484302L132.38515625,154.0823331534592L133.999609375,154.09013595571486L135.61406250000002,154.08424807163854L137.228515625,154.0917221958477L138.84296874999998,154.0495650745073L140.457421875,154.07027799896872L142.071875,154.06971329108043L143.68632812500002,154.0828611183657L145.30078125,154.0827377151275L146.91523437499998,154.08825617969498L148.5296875,154.09316992852013L150.144140625,154.08686713533473L151.75859375000002,154.09339782921518L153.373046875,154.09978816041973L154.98749999999998,154.0900634667271L156.601953125,154.0808972377511L158.21640625,154.09267515661548L159.83085937500002,154.0970481742102L161.4453125,154.0593021817071L163.05976562499998,154.08021422406333L164.67421875,154.0905699056945L166.288671875,154.09897790288935L167.90312500000002,154.09797282164897L169.517578125,154.09466468745555L171.13203124999998,154.1015110007871L172.746484375,154.09396181775745L174.3609375,154.08996270019222L175.97539062500002,154.07538068082496L177.58984375,154.0506462340158L179.20429687499998,154.07244761345638L180.81875,154.0779554007561L182.433203125,154.0808429857336L184.04765625000002,154.0934104162774L185.662109375,154.08121180559326L187.27656249999998,154.0922437060773L188.891015625,154.0975848686659L190.50546875,154.09627474200033L192.11992187500002,154.0927966786963L193.734375,154.09460669211362L195.34882812499998,154.09110764157026L196.96328125,154.09667300942132L198.577734375,154.09890674673352L200.19218750000002,154.09107956236303L201.806640625,154.0874174623527L203.42109374999998,154.09545650849887L205.035546875,154.096082134266L206.65,154.10177410559214L208.26445312500002,154.08109476771727L209.87890625,154.09262575874234L211.49335937499998,154.09185772493942L213.1078125,154.1019607116238L214.722265625,154.0990327160368L216.33671875000002,154.08560174306606L217.951171875,154.08939530446594L219.56562499999998,154.08226378749728L221.180078125,154.0861390976937L222.79453125,154.09551120357062L224.40898437500002,154.08786755710332L226.0234375,154.07689343953544L227.63789062499998,154.0840752132981L229.25234375,154.08183296326533L230.866796875,154.07883066256204L232.48125000000002,154.09161226065572L234.095703125,154.0982746448049L235.71015624999998,154.09316334238423L237.324609375,154.0626068595972L238.9390625,154.01375405716456" style="fill: none;" fill="none"></path></g></g></g></g><g opacity="0.2"><g><g><g><path stroke="rgb(255, 112, 67)" stroke-width="2px" d="M33.903515625000004,14.366418749999996L35.51796875,49.8238125L37.132421875,139.9848068359375L38.746874999999996,148.85875113932292L40.361328125,151.66378793945313L41.975781250000004,152.07455896809896L43.590234375,152.41981166178385L45.2046875,152.89693977864584L46.819140624999996,153.09908828125L48.43359375,153.083284366862L50.048046875000004,153.18798173014324L51.6625,153.2114748453776L53.276953125,153.41697057291665L54.891406249999996,153.36747032470703L56.505859375,153.4924115193685L58.120312500000004,153.5761775756836L59.734765625,153.67880112508138L61.34921875,153.67229093424478L62.963671874999996,153.7470798055013L64.578125,153.78920957438152L66.192578125,153.53240310465495L67.80703125000001,153.8469996500651L69.42148437499999,153.7837720743815L71.0359375,153.877740818278L72.650390625,153.9282473815918L74.26484375,153.9287454650879L75.87929687500001,153.93344516194662L77.49374999999999,153.9582820760091L79.108203125,153.9432249328613L80.72265625,153.95977060343424L82.337109375,153.9695176879883L83.95156250000001,153.96987163289387L85.56601562499999,154.01742308959962L87.18046875,154.03098633626303L88.794921875,154.02608060913084L90.409375,154.0238427734375L92.02382812500001,154.04675461425782L93.63828124999999,154.04981090698243L95.252734375,154.05778443196616L96.8671875,154.05866100463868L98.481640625,154.03308428141275L100.09609375000001,154.07103680419922L101.71054687499999,154.06940702921548L103.325,154.08063833414712L104.939453125,154.0740373413086L106.55390625,154.0703366434733L108.16835937500001,154.06584858194987L109.78281249999999,154.07885857950848L111.397265625,154.08159467569988L113.01171875,154.02825625813801L114.626171875,154.06825569051108L116.24062500000001,154.09251357218423L117.85507812499999,154.09289571940104L119.46953125,154.0546637105306L121.083984375,154.10132632242838L122.6984375,154.08962372029623L124.31289062500001,154.05419884440104L125.92734374999999,153.97697944132486L127.541796875,154.1070610087077L129.15625,154.10594760742188L130.77070312499998,154.08916912027996L132.38515625,154.07984412638348L133.999609375,154.10184015909832L135.61406250000002,154.07541624552408L137.228515625,154.10293338216147L138.84296874999998,153.98632939249674L140.457421875,154.1013473856608L142.071875,154.06886622924804L143.68632812500002,154.10258285929362L145.30078125,154.0825526102702L146.91523437499998,154.09653387654623L148.5296875,154.1005405517578L150.144140625,154.07741294555666L151.75859375000002,154.1031938700358L153.373046875,154.10937365722657L154.98749999999998,154.07547642618815L156.601953125,154.0671478942871L158.21640625,154.11034203491212L159.83085937500002,154.1036077006022L161.4453125,154.00268319295247L163.05976562499998,154.11158228759766L164.67421875,154.10610342814127L166.288671875,154.11158989868164L167.90312500000002,154.0964651997884L169.517578125,154.08970248616538L171.13203124999998,154.1117804707845L172.746484375,154.0826380432129L174.3609375,154.0839640238444L175.97539062500002,154.0535076517741L177.58984375,154.0135445638021L179.20429687499998,154.1051496826172L180.81875,154.08621708170574L182.433203125,154.08517436319988L184.04765625000002,154.1122615620931L185.662109375,154.06291388956706L187.27656249999998,154.1087915568034L188.891015625,154.10559661254882L190.50546875,154.09430955200196L192.11992187500002,154.08757958374025L193.734375,154.0973217122396L195.34882812499998,154.08585906575522L196.96328125,154.10502106119793L198.577734375,154.10225735270183L200.19218750000002,154.0793387858073L201.806640625,154.08192431233724L203.42109374999998,154.10751507771812L205.035546875,154.09702057291665L206.65,154.1103120625814L208.26445312500002,154.05007576090495L209.87890625,154.10992224527993L211.49335937499998,154.09070567423504L213.1078125,154.11711519165038L214.722265625,154.09464072265624L216.33671875000002,154.06545528361005L217.951171875,154.09508564656576L219.56562499999998,154.07156651204428L221.180078125,154.09195206298827L222.79453125,154.10956936238605L224.40898437500002,154.07640208740233L226.0234375,154.0604322631836L227.63789062499998,154.09484787394206L229.25234375,154.07846958821617L230.866796875,154.07432721150718L232.48125000000002,154.11078465779622L234.095703125,154.10826822102865L235.71015624999998,154.08549638875326L237.324609375,154.01677213541666L238.9390625,153.9404748535156" style="fill: none;" fill="none"></path></g></g></g></g></g></g><g transform="translate(71, 174)" clip-path="url(#clip_1)"><clipPath id="clip_1"><rect width="258" height="26"></rect></clipPath><g><g><line x1="0" y1="0" x2="0" y2="5" style="visibility: inherit;" fill="rgb(0, 0, 0)" stroke="rgb(204, 204, 204)" stroke-width="1px"></line><line x1="32.2890625" y1="0" x2="32.2890625" y2="5" style="visibility: inherit;" fill="rgb(0, 0, 0)" stroke="rgb(204, 204, 204)" stroke-width="1px"></line><line x1="64.578125" y1="0" x2="64.578125" y2="5" style="visibility: inherit;" fill="rgb(0, 0, 0)" stroke="rgb(204, 204, 204)" stroke-width="1px"></line><line x1="96.8671875" y1="0" x2="96.8671875" y2="5" style="visibility: inherit;" fill="rgb(0, 0, 0)" stroke="rgb(204, 204, 204)" stroke-width="1px"></line><line x1="129.15625" y1="0" x2="129.15625" y2="5" style="visibility: inherit;" fill="rgb(0, 0, 0)" stroke="rgb(204, 204, 204)" stroke-width="1px"></line><line x1="161.4453125" y1="0" x2="161.4453125" y2="5" style="visibility: inherit;" fill="rgb(0, 0, 0)" stroke="rgb(204, 204, 204)" stroke-width="1px"></line><line x1="193.734375" y1="0" x2="193.734375" y2="5" style="visibility: inherit;" fill="rgb(0, 0, 0)" stroke="rgb(204, 204, 204)" stroke-width="1px"></line><line x1="226.0234375" y1="0" x2="226.0234375" y2="5" style="visibility: inherit;" fill="rgb(0, 0, 0)" stroke="rgb(204, 204, 204)" stroke-width="1px"></line><line x1="258.3125" y1="0" x2="258.3125" y2="5" style="visibility: inherit;" fill="rgb(0, 0, 0)" stroke="rgb(204, 204, 204)" stroke-width="1px"></line></g><g transform="translate(0, 8)"><text x="0" y="0" dx="0em" dy="0.95em" style="text-anchor: middle; visibility: hidden; font-family: Roboto, sans-serif; font-size: 12px; font-weight: 200;" fill="rgb(33, 33, 33)" stroke="none" stroke-width="1px">-20</text><text x="32.2890625" y="0" dx="0em" dy="0.95em" style="text-anchor: middle; visibility: inherit; font-family: Roboto, sans-serif; font-size: 12px; font-weight: 200;" fill="rgb(33, 33, 33)" stroke="none" stroke-width="1px">0</text><text x="64.578125" y="0" dx="0em" dy="0.95em" style="text-anchor: middle; visibility: inherit; font-family: Roboto, sans-serif; font-size: 12px; font-weight: 200;" fill="rgb(33, 33, 33)" stroke="none" stroke-width="1px">20</text><text x="96.8671875" y="0" dx="0em" dy="0.95em" style="text-anchor: middle; visibility: inherit; font-family: Roboto, sans-serif; font-size: 12px; font-weight: 200;" fill="rgb(33, 33, 33)" stroke="none" stroke-width="1px">40</text><text x="129.15625" y="0" dx="0em" dy="0.95em" style="text-anchor: middle; visibility: inherit; font-family: Roboto, sans-serif; font-size: 12px; font-weight: 200;" fill="rgb(33, 33, 33)" stroke="none" stroke-width="1px">60</text><text x="161.4453125" y="0" dx="0em" dy="0.95em" style="text-anchor: middle; visibility: inherit; font-family: Roboto, sans-serif; font-size: 12px; font-weight: 200;" fill="rgb(33, 33, 33)" stroke="none" stroke-width="1px">80</text><text x="193.734375" y="0" dx="0em" dy="0.95em" style="text-anchor: middle; visibility: inherit; font-family: Roboto, sans-serif; font-size: 12px; font-weight: 200;" fill="rgb(33, 33, 33)" stroke="none" stroke-width="1px">100</text><text x="226.0234375" y="0" dx="0em" dy="0.95em" style="text-anchor: middle; visibility: inherit; font-family: Roboto, sans-serif; font-size: 12px; font-weight: 200;" fill="rgb(33, 33, 33)" stroke="none" stroke-width="1px">120</text><text x="258.3125" y="0" dx="0em" dy="0.95em" style="text-anchor: middle; visibility: hidden; font-family: Roboto, sans-serif; font-size: 12px; font-weight: 200;" fill="rgb(33, 33, 33)" stroke="none" stroke-width="1px">140</text></g><line x1="0" y1="0" x2="258.3125" y2="0" fill="rgb(0, 0, 0)" stroke="rgb(204, 204, 204)" stroke-width="1px"></line></g></g></g></g></svg>