<svg viewBox="0 0 330 200" xmlns="http://www.w3.org/2000/svg"><g><g><g><g><g><line x1="51.125" y1="174" x2="46.125" y2="174" style="visibility: inherit;" fill="rgb(0, 0, 0)" stroke="rgb(204, 204, 204)" stroke-width="1px"></line><line x1="51.125" y1="160.6153846153846" x2="46.125" y2="160.6153846153846" style="visibility: inherit;" fill="rgb(0, 0, 0)" stroke="rgb(204, 204, 204)" stroke-width="1px"></line><line x1="51.125" y1="147.23076923076923" x2="46.125" y2="147.23076923076923" style="visibility: inherit;" fill="rgb(0, 0, 0)" stroke="rgb(204, 204, 204)" stroke-width="1px"></line><line x1="51.125" y1="133.84615384615384" x2="46.125" y2="133.84615384615384" style="visibility: inherit;" fill="rgb(0, 0, 0)" stroke="rgb(204, 204, 204)" stroke-width="1px"></line><line x1="51.125" y1="120.46153846153845" x2="46.125" y2="120.46153846153845" style="visibility: inherit;" fill="rgb(0, 0, 0)" stroke="rgb(204, 204, 204)" stroke-width="1px"></line><line x1="51.125" y1="107.07692307692308" x2="46.125" y2="107.07692307692308" style="visibility: inherit;" fill="rgb(0, 0, 0)" stroke="rgb(204, 204, 204)" stroke-width="1px"></line><line x1="51.125" y1="93.6923076923077" x2="46.125" y2="93.6923076923077" style="visibility: inherit;" fill="rgb(0, 0, 0)" stroke="rgb(204, 204, 204)" stroke-width="1px"></line><line x1="51.125" y1="80.3076923076923" x2="46.125" y2="80.3076923076923" style="visibility: inherit;" fill="rgb(0, 0, 0)" stroke="rgb(204, 204, 204)" stroke-width="1px"></line><line x1="51.125" y1="66.92307692307692" x2="46.125" y2="66.92307692307692" style="visibility: inherit;" fill="rgb(0, 0, 0)" stroke="rgb(204, 204, 204)" stroke-width="1px"></line><line x1="51.125" y1="53.53846153846154" x2="46.125" y2="53.53846153846154" style="visibility: inherit;" fill="rgb(0, 0, 0)" stroke="rgb(204, 204, 204)" stroke-width="1px"></line><line x1="51.125" y1="40.153846153846146" x2="46.125" y2="40.153846153846146" style="visibility: inherit;" fill="rgb(0, 0, 0)" stroke="rgb(204, 204, 204)" stroke-width="1px"></line><line x1="51.125" y1="26.76923076923077" x2="46.125" y2="26.76923076923077" style="visibility: inherit;" fill="rgb(0, 0, 0)" stroke="rgb(204, 204, 204)" stroke-width="1px"></line><line x1="51.125" y1="13.384615384615376" x2="46.125" y2="13.384615384615376" style="visibility: inherit;" fill="rgb(0, 0, 0)" stroke="rgb(204, 204, 204)" stroke-width="1px"></line><line x1="51.125" y1="0" x2="46.125" y2="0" style="visibility: inherit;" fill="rgb(0, 0, 0)" stroke="rgb(204, 204, 204)" stroke-width="1px"></line></g><g transform="translate(41.125, 0)"><text x="0" y="174" dx="0em" dy="0.3em" style="text-anchor: end; visibility: hidden; font-family: Roboto, sans-serif; font-size: 12px; font-weight: 200;" fill="rgb(33, 33, 33)" stroke="none" stroke-width="1px">6</text><text x="0" y="160.6153846153846" dx="0em" dy="0.3em" style="text-anchor: end; visibility: inherit; font-family: Roboto, sans-serif; font-size: 12px; font-weight: 200;" fill="rgb(33, 33, 33)" stroke="none" stroke-width="1px">6.5</text><text x="0" y="147.23076923076923" dx="0em" dy="0.3em" style="text-anchor: end; visibility: hidden; font-family: Roboto, sans-serif; font-size: 12px; font-weight: 200;" fill="rgb(33, 33, 33)" stroke="none" stroke-width="1px">7</text><text x="0" y="133.84615384615384" dx="0em" dy="0.3em" style="text-anchor: end; visibility: inherit; font-family: Roboto, sans-serif; font-size: 12px; font-weight: 200;" fill="rgb(33, 33, 33)" stroke="none" stroke-width="1px">7.5</text><text x="0" y="120.46153846153845" dx="0em" dy="0.3em" style="text-anchor: end; visibility: hidden; font-family: Roboto, sans-serif; font-size: 12px; font-weight: 200;" fill="rgb(33, 33, 33)" stroke="none" stroke-width="1px">8</text><text x="0" y="107.07692307692308" dx="0em" dy="0.3em" style="text-anchor: end; visibility: inherit; font-family: Roboto, sans-serif; font-size: 12px; font-weight: 200;" fill="rgb(33, 33, 33)" stroke="none" stroke-width="1px">8.5</text><text x="0" y="93.6923076923077" dx="0em" dy="0.3em" style="text-anchor: end; visibility: hidden; font-family: Roboto, sans-serif; font-size: 12px; font-weight: 200;" fill="rgb(33, 33, 33)" stroke="none" stroke-width="1px">9</text><text x="0" y="80.3076923076923" dx="0em" dy="0.3em" style="text-anchor: end; visibility: inherit; font-family: Roboto, sans-serif; font-size: 12px; font-weight: 200;" fill="rgb(33, 33, 33)" stroke="none" stroke-width="1px">9.5</text><text x="0" y="66.92307692307692" dx="0em" dy="0.3em" style="text-anchor: end; visibility: hidden; font-family: Roboto, sans-serif; font-size: 12px; font-weight: 200;" fill="rgb(33, 33, 33)" stroke="none" stroke-width="1px">10</text><text x="0" y="53.53846153846154" dx="0em" dy="0.3em" style="text-anchor: end; visibility: inherit; font-family: Roboto, sans-serif; font-size: 12px; font-weight: 200;" fill="rgb(33, 33, 33)" stroke="none" stroke-width="1px">10.5</text><text x="0" y="40.153846153846146" dx="0em" dy="0.3em" style="text-anchor: end; visibility: hidden; font-family: Roboto, sans-serif; font-size: 12px; font-weight: 200;" fill="rgb(33, 33, 33)" stroke="none" stroke-width="1px">11</text><text x="0" y="26.76923076923077" dx="0em" dy="0.3em" style="text-anchor: end; visibility: inherit; font-family: Roboto, sans-serif; font-size: 12px; font-weight: 200;" fill="rgb(33, 33, 33)" stroke="none" stroke-width="1px">11.5</text><text x="0" y="13.384615384615376" dx="0em" dy="0.3em" style="text-anchor: end; visibility: hidden; font-family: Roboto, sans-serif; font-size: 12px; font-weight: 200;" fill="rgb(33, 33, 33)" stroke="none" stroke-width="1px">12</text><text x="0" y="0" dx="0em" dy="0.3em" style="text-anchor: end; visibility: hidden; font-family: Roboto, sans-serif; font-size: 12px; font-weight: 200;" fill="rgb(33, 33, 33)" stroke="none" stroke-width="1px">12.5</text></g><line x1="51.125" y1="0" x2="51.125" y2="174" fill="rgb(0, 0, 0)" stroke="rgb(204, 204, 204)" stroke-width="1px"></line></g></g><g transform="translate(51, 0)" clip-path="url(#clip_0)"><clipPath id="clip_0"><rect width="278" height="174"></rect></clipPath><g><g><g><line x1="0" y1="0" x2="0" y2="174" fill="rgb(0, 0, 0)" stroke="rgb(66, 66, 66)" stroke-width="1px" opacity="0.25"></line><line x1="34.859375" y1="0" x2="34.859375" y2="174" fill="rgb(0, 0, 0)" stroke="rgb(66, 66, 66)" stroke-width="1px" opacity="0.25"></line><line x1="69.71875" y1="0" x2="69.71875" y2="174" fill="rgb(0, 0, 0)" stroke="rgb(66, 66, 66)" stroke-width="1px" opacity="0.25"></line><line x1="104.578125" y1="0" x2="104.578125" y2="174" fill="rgb(0, 0, 0)" stroke="rgb(66, 66, 66)" stroke-width="1px" opacity="0.25"></line><line x1="139.4375" y1="0" x2="139.4375" y2="174" fill="rgb(0, 0, 0)" stroke="rgb(66, 66, 66)" stroke-width="1px" opacity="0.25"></line><line x1="174.296875" y1="0" x2="174.296875" y2="174" fill="rgb(0, 0, 0)" stroke="rgb(66, 66, 66)" stroke-width="1px" opacity="0.25"></line><line x1="209.15625" y1="0" x2="209.15625" y2="174" fill="rgb(0, 0, 0)" stroke="rgb(66, 66, 66)" stroke-width="1px" opacity="0.25"></line><line x1="244.015625" y1="0" x2="244.015625" y2="174" fill="rgb(0, 0, 0)" stroke="rgb(66, 66, 66)" stroke-width="1px" opacity="0.25"></line><line x1="278.875" y1="0" x2="278.875" y2="174" fill="rgb(0, 0, 0)" stroke="rgb(66, 66, 66)" stroke-width="1px" opacity="0.25"></line></g><g><line x1="0" y1="174" x2="278.875" y2="174" fill="rgb(0, 0, 0)" stroke="rgb(66, 66, 66)" stroke-width="1px" opacity="0.25"></line><line x1="0" y1="160.6153846153846" x2="278.875" y2="160.6153846153846" fill="rgb(0, 0, 0)" stroke="rgb(66, 66, 66)" stroke-width="1px" opacity="0.25"></line><line x1="0" y1="147.23076923076923" x2="278.875" y2="147.23076923076923" fill="rgb(0, 0, 0)" stroke="rgb(66, 66, 66)" stroke-width="1px" opacity="0.25"></line><line x1="0" y1="133.84615384615384" x2="278.875" y2="133.84615384615384" fill="rgb(0, 0, 0)" stroke="rgb(66, 66, 66)" stroke-width="1px" opacity="0.25"></line><line x1="0" y1="120.46153846153845" x2="278.875" y2="120.46153846153845" fill="rgb(0, 0, 0)" stroke="rgb(66, 66, 66)" stroke-width="1px" opacity="0.25"></line><line x1="0" y1="107.07692307692308" x2="278.875" y2="107.07692307692308" fill="rgb(0, 0, 0)" stroke="rgb(66, 66, 66)" stroke-width="1px" opacity="0.25"></line><line x1="0" y1="93.6923076923077" x2="278.875" y2="93.6923076923077" fill="rgb(0, 0, 0)" stroke="rgb(66, 66, 66)" stroke-width="1px" opacity="0.25"></line><line x1="0" y1="80.3076923076923" x2="278.875" y2="80.3076923076923" fill="rgb(0, 0, 0)" stroke="rgb(66, 66, 66)" stroke-width="1px" opacity="0.25"></line><line x1="0" y1="66.92307692307692" x2="278.875" y2="66.92307692307692" fill="rgb(0, 0, 0)" stroke="rgb(66, 66, 66)" stroke-width="1px" opacity="0.25"></line><line x1="0" y1="53.53846153846154" x2="278.875" y2="53.53846153846154" fill="rgb(0, 0, 0)" stroke="rgb(66, 66, 66)" stroke-width="1px" opacity="0.25"></line><line x1="0" y1="40.153846153846146" x2="278.875" y2="40.153846153846146" fill="rgb(0, 0, 0)" stroke="rgb(66, 66, 66)" stroke-width="1px" opacity="0.25"></line><line x1="0" y1="26.76923076923077" x2="278.875" y2="26.76923076923077" fill="rgb(0, 0, 0)" stroke="rgb(66, 66, 66)" stroke-width="1px" opacity="0.25"></line><line x1="0" y1="13.384615384615376" x2="278.875" y2="13.384615384615376" fill="rgb(0, 0, 0)" stroke="rgb(66, 66, 66)" stroke-width="1px" opacity="0.25"></line><line x1="0" y1="0" x2="278.875" y2="0" fill="rgb(0, 0, 0)" stroke="rgb(66, 66, 66)" stroke-width="1px" opacity="0.25"></line></g></g></g><g><g><line x1="0" y1="334.61538461538464" x2="278.875" y2="334.61538461538464" fill="rgb(0, 0, 0)" stroke="rgb(153, 153, 153)" stroke-width="1.5px"></line></g></g><g><g><line x1="34.859375" y1="0" x2="34.859375" y2="174" fill="rgb(0, 0, 0)" stroke="rgb(153, 153, 153)" stroke-width="1.5px"></line></g></g><g><g><g><g><g><path stroke="rgb(255, 112, 67)" stroke-width="2px" d="M36.60234375,16.45125080988958L38.345312500000006,21.325303811293388L40.088281249999994,49.6664878929054L41.83125,73.57874975377077L43.57421875,93.43437908300695L45.3171875,105.96344004851039L47.060156250000006,114.67062420368839L48.803124999999994,122.33592854283376L50.54609375,128.16386964320628L52.2890625,131.5147472015733L54.03203125,134.24744388166067L55.775000000000006,136.05256646902106L57.517968749999994,138.76536005424146L59.2609375,139.97449966652025L61.00390625,141.78256101987262L62.746875,143.65952687901625L64.48984375,145.8438412910004L66.2328125,147.08385339506535L67.97578125,148.66506903448558L69.71875,150.1159079492658L71.46171874999999,148.23753968731012L73.2046875,150.58888349652548L74.94765625,151.20400246902958L76.69062500000001,152.77804618208097L78.43359375,154.43089784273596L80.17656249999999,155.42983058720367L81.91953125,156.09760217017L83.6625,156.86726292314617L85.40546875000001,157.10384612935084L87.1484375,157.49353070875284L88.89140624999999,157.8760128499529L90.634375,158.11093980686888L92.37734375,159.00875295287258L94.12031250000001,159.7735012466656L95.86328125,160.15003408764906L97.60624999999999,160.3386097794857L99.34921875,160.84037489742676L101.0921875,161.19435584844305L102.83515625000001,161.5460517633988L104.578125,161.77249911676674L106.32109374999999,161.46714761152938L108.0640625,161.94535556496928L109.80703125,162.20302395635613L111.55000000000001,162.56089811880508L113.29296875,162.65568166773596L115.03593749999999,162.64589524425574L116.77890625,162.55973938888798L118.521875,162.74245432763524L120.26484375000001,162.9020437940931L122.0078125,162.06358967507435L123.75078124999999,162.2533419928648L125.49375,162.81029734988593L127.23671875,163.15159829659456L128.9796875,162.6656576755599L130.72265625,163.22331463519654L132.465625,163.33852169784723L134.20859375,162.769683242003L135.9515625,161.15692748482746L137.69453125,162.4272441772886L139.4375,163.1681531117856L141.18046875,163.2969899599575L142.92343749999998,163.20277207045694L144.66640625000002,163.55532008149817L146.409375,163.2772819090814L148.15234375,163.62077095396748L149.8953125,161.81373436897377L151.63828124999998,162.71255890563907L153.38125000000002,162.65365510375005L155.12421875,163.23993687422418L156.8671875,163.21807693870593L158.61015625,163.46437776300192L160.35312499999998,163.68767341777334L162.09609375000002,163.39291463744658L163.8390625,163.6950981359648L165.58203125,163.99449066305425L167.325,163.5418717988617L169.06796874999998,163.1205057697467L170.81093750000002,163.66835618918049L172.55390625,163.86823114420991L174.296875,162.22274544452625L176.03984375,163.15360036354568L177.78281249999998,163.60694351984768L179.52578125000002,163.9842672776801L181.26875,163.922800192517L183.01171875,163.75967329835274L184.7546875,164.0795813391942L186.49765624999998,163.7234311061382L188.24062500000002,163.53408043680116L189.98359375,162.87494320790026L191.7265625,161.80337808341278L193.46953125,162.77860788360763L195.21249999999998,163.0086662302209L196.95546875000002,163.12748291073996L198.6984375,163.70955460334002L200.44140625,163.14576367865814L202.184375,163.65371333649549L203.92734374999998,163.89733576416066L205.67031250000002,163.83023888666273L207.41328125,163.66481144629302L209.15625,163.74722536170984L210.89921875,163.58323488461906L212.64218749999998,163.84406606223178L214.38515625000002,163.9480054003724L216.128125,163.58416531955038L217.87109375,163.41310547506478L219.6140625,163.78964619237811L221.35703124999998,163.81646384880278L223.10000000000002,164.08535407832466L224.84296875,163.14593859868123L226.5859375,163.67553847048805L228.32890625,163.62994742264362L230.07187499999998,164.10518983983542L231.81484375000002,163.96114980431065L233.5578125,163.34188693224087L235.30078125,163.51150076708566L237.04375,163.1814949285882L238.78671874999998,163.356722168898L240.52968750000002,163.7952280762599L242.27265625,163.43909198961111L244.015625,162.93956069303422L245.75859375,163.26564763783827L247.50156249999998,163.15891749693446L249.24453125000002,163.0197318716395L250.9875,163.61641347319403L252.73046875,163.92606005431907L254.4734375,163.68385217451225L256.21640625,162.3417678852362L257.959375,160.34792196536648" style="fill: none;" fill="none"></path></g></g></g></g><g opacity="0.2"><g><g><g><path stroke="rgb(255, 112, 67)" stroke-width="2px" d="M36.60234375,16.45125080988958L38.345312500000006,24.249735612135673L40.088281249999994,76.874024611253L41.83125,101.69956970214844L43.57421875,119.35788873525767L45.3171875,123.29564182574933L47.060156250000006,127.12203686053937L48.803124999999994,133.51201585622934L50.54609375,136.7589507469764L52.2890625,136.49040985107422L54.03203125,138.32170354402982L55.775000000000006,138.75042695265552L57.517968749999994,142.82569269033579L59.2609375,141.78584025456354L61.00390625,144.49252774165228L62.746875,146.47365188598633L64.48984375,149.11938858032227L66.2328125,148.94355671222394L67.97578125,151.03665161132812L69.71875,152.29203370901254L71.46171874999999,145.42009030855618L73.2046875,154.1158218383789L74.94765625,152.1266687833346L76.69062500000001,155.13909310560962L78.43359375,156.9101635859563L80.17656249999999,156.9282254439134L81.91953125,157.09925783597507L83.6625,158.02175287099985L85.40546875000001,157.4587207207313L87.1484375,158.0780573624831L88.89140624999999,158.44973593491773L90.634375,158.4633301955003L92.37734375,160.35547256469727L94.12031250000001,160.92062363257776L95.86328125,160.71483333294208L97.60624999999999,160.62147331237793L99.34921875,161.59302256657526L101.0921875,161.72532727168158L102.83515625000001,162.07359563387357L104.578125,162.11217014606183L106.32109374999999,161.0091203542856L108.0640625,162.66266749455377L109.80703125,162.58952654325046L111.55000000000001,163.09770936232349L113.29296875,162.79785699110766L115.03593749999999,162.63121560903696L116.77890625,162.43050560584436L118.521875,163.01652673574594L120.26484375000001,163.1414279937744L122.0078125,160.80590849656323L123.75078124999999,162.53797046954816L125.49375,163.64573038541354L127.23671875,163.663549716656L128.9796875,161.93674674400916L130.72265625,164.0598000746507L132.465625,163.51133229182318L134.20859375,161.91642555823694L135.9515625,158.73779384906476L137.69453125,164.33271921597995L139.4375,164.279516513531L141.18046875,163.4902452322153L142.92343749999998,163.06144523620605L144.66640625000002,164.08414209806003L146.409375,162.86022465045636L148.15234375,164.13600452129657L149.8953125,159.10317949148325L151.63828124999998,164.06079571063702L153.38125000000002,162.56529940091647L155.12421875,164.1193595299354L156.8671875,163.18528703542856L158.61015625,163.83382899944598L160.35312499999998,164.0226168999305L162.09609375000002,162.9507764669565L163.8390625,164.14837338374213L165.58203125,164.44357945368841L167.325,162.86294350257288L169.06796874999998,162.48845672607422L170.81093750000002,164.4901318183312L172.55390625,164.16804357675406L174.296875,159.75451689500073L176.03984375,164.54988274207483L177.78281249999998,164.28695825430063L179.52578125000002,164.5502529144287L181.26875,163.8305995647724L183.01171875,163.51498295710638L184.7546875,164.55944340045636L186.49765624999998,163.18920575655423L188.24062500000002,163.2500544327956L189.98359375,161.8862373645489L191.7265625,160.19603039668158L193.46953125,164.24145258389987L195.21249999999998,163.35375375014087L196.95546875000002,163.30570793151855L198.6984375,164.58266214224008L200.44140625,162.30007729163538L202.184375,164.4156378232516L203.92734374999998,164.26276940565845L205.67031250000002,163.72959357041577L207.41328125,163.41667028573843L209.15625,163.8708462348351L210.89921875,163.33724916898288L212.64218749999998,164.23531282865085L214.38515625000002,164.10391440758337L216.128125,163.03840519831732L217.87109375,163.15651570833646L219.6140625,164.3544572683481L221.35703124999998,163.85669033343976L223.10000000000002,164.48868942260742L224.84296875,161.73681537921613L226.5859375,164.46993827819824L228.32890625,163.56156085087702L230.07187499999998,164.8180534656231L231.81484375000002,163.7450897510235L233.5578125,162.4129926241361L235.30078125,163.76592151935284L237.04375,162.6864861708421L238.78671874999998,163.6195630293626L240.52968750000002,164.4529869373028L242.27265625,162.90488785963794L244.015625,162.19026374816895L245.75859375,163.7547780550443L247.50156249999998,162.9988222855788L249.24453125000002,162.81095343369702L250.9875,164.51143587552585L252.73046875,164.3905299260066L254.4734375,163.32054035480206L256.21640625,160.3286414513221L257.959375,157.3571530855619" style="fill: none;" fill="none"></path></g></g></g></g></g></g><g transform="translate(51, 174)" clip-path="url(#clip_1)"><clipPath id="clip_1"><rect width="278" height="26"></rect></clipPath><g><g><line x1="0" y1="0" x2="0" y2="5" style="visibility: inherit;" fill="rgb(0, 0, 0)" stroke="rgb(204, 204, 204)" stroke-width="1px"></line><line x1="34.859375" y1="0" x2="34.859375" y2="5" style="visibility: inherit;" fill="rgb(0, 0, 0)" stroke="rgb(204, 204, 204)" stroke-width="1px"></line><line x1="69.71875" y1="0" x2="69.71875" y2="5" style="visibility: inherit;" fill="rgb(0, 0, 0)" stroke="rgb(204, 204, 204)" stroke-width="1px"></line><line x1="104.578125" y1="0" x2="104.578125" y2="5" style="visibility: inherit;" fill="rgb(0, 0, 0)" stroke="rgb(204, 204, 204)" stroke-width="1px"></line><line x1="139.4375" y1="0" x2="139.4375" y2="5" style="visibility: inherit;" fill="rgb(0, 0, 0)" stroke="rgb(204, 204, 204)" stroke-width="1px"></line><line x1="174.296875" y1="0" x2="174.296875" y2="5" style="visibility: inherit;" fill="rgb(0, 0, 0)" stroke="rgb(204, 204, 204)" stroke-width="1px"></line><line x1="209.15625" y1="0" x2="209.15625" y2="5" style="visibility: inherit;" fill="rgb(0, 0, 0)" stroke="rgb(204, 204, 204)" stroke-width="1px"></line><line x1="244.015625" y1="0" x2="244.015625" y2="5" style="visibility: inherit;" fill="rgb(0, 0, 0)" stroke="rgb(204, 204, 204)" stroke-width="1px"></line><line x1="278.875" y1="0" x2="278.875" y2="5" style="visibility: inherit;" fill="rgb(0, 0, 0)" stroke="rgb(204, 204, 204)" stroke-width="1px"></line></g><g transform="translate(0, 8)"><text x="0" y="0" dx="0em" dy="0.95em" style="text-anchor: middle; visibility: hidden; font-family: Roboto, sans-serif; font-size: 12px; font-weight: 200;" fill="rgb(33, 33, 33)" stroke="none" stroke-width="1px">-20</text><text x="34.859375" y="0" dx="0em" dy="0.95em" style="text-anchor: middle; visibility: inherit; font-family: Roboto, sans-serif; font-size: 12px; font-weight: 200;" fill="rgb(33, 33, 33)" stroke="none" stroke-width="1px">0</text><text x="69.71875" y="0" dx="0em" dy="0.95em" style="text-anchor: middle; visibility: inherit; font-family: Roboto, sans-serif; font-size: 12px; font-weight: 200;" fill="rgb(33, 33, 33)" stroke="none" stroke-width="1px">20</text><text x="104.578125" y="0" dx="0em" dy="0.95em" style="text-anchor: middle; visibility: inherit; font-family: Roboto, sans-serif; font-size: 12px; font-weight: 200;" fill="rgb(33, 33, 33)" stroke="none" stroke-width="1px">40</text><text x="139.4375" y="0" dx="0em" dy="0.95em" style="text-anchor: middle; visibility: inherit; font-family: Roboto, sans-serif; font-size: 12px; font-weight: 200;" fill="rgb(33, 33, 33)" stroke="none" stroke-width="1px">60</text><text x="174.296875" y="0" dx="0em" dy="0.95em" style="text-anchor: middle; visibility: inherit; font-family: Roboto, sans-serif; font-size: 12px; font-weight: 200;" fill="rgb(33, 33, 33)" stroke="none" stroke-width="1px">80</text><text x="209.15625" y="0" dx="0em" dy="0.95em" style="text-anchor: middle; visibility: inherit; font-family: Roboto, sans-serif; font-size: 12px; font-weight: 200;" fill="rgb(33, 33, 33)" stroke="none" stroke-width="1px">100</text><text x="244.015625" y="0" dx="0em" dy="0.95em" style="text-anchor: middle; visibility: inherit; font-family: Roboto, sans-serif; font-size: 12px; font-weight: 200;" fill="rgb(33, 33, 33)" stroke="none" stroke-width="1px">120</text><text x="278.875" y="0" dx="0em" dy="0.95em" style="text-anchor: middle; visibility: hidden; font-family: Roboto, sans-serif; font-size: 12px; font-weight: 200;" fill="rgb(33, 33, 33)" stroke="none" stroke-width="1px">140</text></g><line x1="0" y1="0" x2="278.875" y2="0" fill="rgb(0, 0, 0)" stroke="rgb(204, 204, 204)" stroke-width="1px"></line></g></g></g></g></svg>